<svg width="19" height="19" viewBox="0 0 19 19" fill="none" xmlns="http://www.w3.org/2000/svg">
<path d="M13.8024 1.5H5.80237C3.59323 1.5 1.80237 3.29086 1.80237 5.5V13.5C1.80237 15.7091 3.59323 17.5 5.80237 17.5H13.8024C16.0115 17.5 17.8024 15.7091 17.8024 13.5V5.5C17.8024 3.29086 16.0115 1.5 13.8024 1.5Z" stroke="white" stroke-width="2" stroke-linecap="round" stroke-linejoin="round"/>
<path d="M9.80237 12.5C11.4592 12.5 12.8024 11.1569 12.8024 9.5C12.8024 7.84315 11.4592 6.5 9.80237 6.5C8.14551 6.5 6.80237 7.84315 6.80237 9.5C6.80237 11.1569 8.14551 12.5 9.80237 12.5Z" stroke="white" stroke-width="2" stroke-linecap="round" stroke-linejoin="round"/>
<path d="M14.3024 5V5.001" stroke="white" stroke-width="2" stroke-linecap="round" stroke-linejoin="round"/>
</svg>
