<svg width="27" height="16" viewBox="0 0 27 16" fill="none" xmlns="http://www.w3.org/2000/svg">
<path fill-rule="evenodd" clip-rule="evenodd" d="M11.1406 0.523671C10.1449 0.612474 9.57493 0.842052 9.29326 1.26771C9.16045 1.46834 9.18265 1.51521 9.43965 1.57691C10.288 1.7806 10.5992 2.16704 10.7709 3.23016C10.8385 3.64919 10.8405 6.09665 10.7735 6.48575C10.5948 7.52358 10.4108 7.83784 9.98561 7.83141C9.46008 7.82348 8.64069 6.8734 7.5904 5.05408C7.55301 4.98936 7.43209 4.78084 7.32167 4.59076C7.14422 4.28525 6.52621 3.05197 6.36469 2.68103C6.33182 2.60552 6.25886 2.44172 6.20261 2.31703C6.14637 2.19238 6.10032 2.08094 6.10032 2.06941C6.10032 1.82928 5.72702 1.38699 5.40295 1.2432L5.19593 1.15129L3.20641 1.15271C0.631126 1.15451 0.456619 1.19079 0.453324 1.72506C0.451951 1.94413 0.46517 1.98214 0.805908 2.73986C1.22596 3.67402 2.01883 5.26291 2.54298 6.22099C2.62264 6.36663 2.75298 6.60487 2.83261 6.75051C2.91223 6.89611 3.06454 7.16531 3.17103 7.34868C3.27757 7.53205 3.39963 7.74386 3.44231 7.81937C3.48498 7.89487 3.53378 7.9743 3.55076 7.99587C3.56774 8.01745 3.61662 8.09688 3.65937 8.17238C3.89832 8.59427 4.863 10.0711 5.11984 10.4081C5.17738 10.4837 5.34949 10.7131 5.50235 10.9181C7.15179 13.1297 9.066 14.5647 11.1014 15.1156C11.5473 15.2363 11.6812 15.268 11.9251 15.3105C12.0761 15.3368 12.2844 15.3743 12.3879 15.3936C12.6835 15.4489 15.0293 15.4384 15.1975 15.381C15.6 15.2436 15.8279 14.948 15.8279 14.5632C15.8279 13.5704 16.0992 12.5884 16.4723 12.2309C17.0327 11.6939 17.5626 11.9907 18.962 13.6253C19.927 14.7524 20.5797 15.2291 21.4854 15.4682C21.8121 15.5544 25.7547 15.4493 26.0694 15.3459C27.5112 14.8727 26.8368 13.5653 23.5662 10.493C22.3221 9.32431 22.237 9.01774 22.8809 8.02349C22.9968 7.84451 23.2011 7.55327 23.3349 7.37629C23.582 7.04932 24.1454 6.31838 24.2329 6.21118C24.2739 6.16082 24.7422 5.53571 24.9674 5.23059C26.3386 3.37255 26.9959 2.01563 26.7525 1.54506C26.5457 1.14514 26.4737 1.13647 23.6138 1.16722C20.6486 1.19911 20.7784 1.16993 20.4994 1.86713C20.48 1.91569 20.427 2.03905 20.3818 2.14127C20.3365 2.24352 20.2994 2.33566 20.2994 2.34602C20.2994 2.35641 20.2572 2.45812 20.2057 2.57199C20.1542 2.68589 20.0733 2.86734 20.026 2.97521C19.8594 3.35509 19.4171 4.23418 19.2267 4.56378C19.1208 4.74715 19.0021 4.95335 18.9629 5.02203C18.8914 5.14727 18.7841 5.31715 18.3855 5.93662C17.0673 7.98485 16.1578 8.3441 15.8682 6.93094C15.819 6.69042 15.8321 4.1371 15.8905 2.60258C15.9264 1.66019 15.8198 1.21048 15.4921 0.92203C15.3072 0.75929 15.1093 0.684725 14.5335 0.560895C14.2745 0.505236 11.6682 0.476642 11.1406 0.523671Z" fill="white"/>
</svg>
