<svg width="14" height="15" viewBox="0 0 14 15" fill="none" xmlns="http://www.w3.org/2000/svg">
<path fill-rule="evenodd" clip-rule="evenodd" d="M6.93761 0.0192701C6.92212 0.0347598 6.90944 2.47887 6.90944 5.45066V10.8539L6.80431 11.1332C6.18782 12.771 4.13769 13.1247 3.07125 11.7772C1.82039 10.1967 3.28724 7.8856 5.25369 8.33889C5.51016 8.398 5.50367 8.43299 5.50442 6.98579C5.50516 5.48523 5.57406 5.63939 4.8923 5.61671C-0.872508 5.42476 -1.7491 13.5825 3.89411 14.9064C5.95639 15.3901 8.44221 13.944 9.15263 11.8471C9.40662 11.0974 9.40096 11.18 9.41798 7.9747C9.43029 5.65847 9.44463 5.03165 9.48519 5.03165C9.51352 5.03165 9.6101 5.08498 9.69977 5.1502C10.3998 5.65921 11.6569 6.08388 12.7212 6.17083C13.1436 6.20536 13.1111 6.3187 13.0963 4.8666L13.0847 3.73085L12.8988 3.69764C10.7773 3.31845 9.59564 2.20869 9.37118 0.384744L9.32542 0.0129916L8.1456 0.00204558C7.49668 -0.00398507 6.9531 0.00378042 6.93761 0.0192701Z" fill="white"/>
</svg>
